<svg width="83" height="77" viewBox="0 0 83 77" fill="none" xmlns="http://www.w3.org/2000/svg">
<path d="M0 12C0 5.37258 5.37258 0 12 0H71C77.6274 0 83 5.37258 83 12V65C83 71.6274 77.6274 77 71 77H12C5.37259 77 0 71.6274 0 65V12Z" fill="black"/>
<path d="M15.76 55.684C15.376 55.684 14.848 55.268 14.176 54.436C13.504 53.572 13.168 52.756 13.168 51.988C13.168 51.22 13.872 48.084 15.28 42.58C14.864 42.42 14.496 42.148 14.176 41.764C13.888 41.348 13.744 40.884 13.744 40.372C13.744 39.956 14.576 39.492 16.24 38.98C18.384 30.596 19.456 25.396 19.456 23.38C19.456 22.836 19.52 22.468 19.648 22.276C19.808 22.052 20.096 21.94 20.512 21.94C20.96 21.94 21.536 22.436 22.24 23.428C22.976 24.42 23.344 25.54 23.344 26.788C23.344 28.004 22.56 31.7 20.992 37.876C25.216 37.012 29.36 36.452 33.424 36.196C35.056 29.54 35.872 25.268 35.872 23.38C35.872 22.42 36.192 21.94 36.832 21.94C37.376 21.94 38.016 22.436 38.752 23.428C39.488 24.42 39.856 25.46 39.856 26.548C39.856 27.604 39.136 30.852 37.696 36.292C39.168 36.516 39.904 36.964 39.904 37.636C39.904 38.276 38.912 38.804 36.928 39.22C35.904 42.996 35.2 45.62 34.816 47.092C34.464 48.532 34.176 49.684 33.952 50.548C33.728 51.412 33.488 52.276 33.232 53.14C32.784 54.836 32.384 55.684 32.032 55.684C31.584 55.684 31.056 55.316 30.448 54.58C29.872 53.812 29.584 53.028 29.584 52.228C29.584 51.428 30.544 47.316 32.464 39.892C27.792 40.532 23.584 41.268 19.84 42.1C19.392 43.764 18.96 45.38 18.544 46.948C18.16 48.484 17.856 49.684 17.632 50.548C17.408 51.412 17.168 52.276 16.912 53.14C16.464 54.836 16.08 55.684 15.76 55.684Z" fill="white"/>
<path d="M70.072 41.076C70.072 41.684 68.664 42.388 65.848 43.188C66.104 46.516 66.232 49.348 66.232 51.684C66.232 55.716 65.72 57.732 64.696 57.732C64.152 57.732 63.72 57.396 63.4 56.724C63.08 56.052 62.824 54.884 62.632 53.22C62.408 50.148 62.168 47.14 61.912 44.196C60.472 44.58 59.16 44.932 57.976 45.252C56.792 45.54 55 46.02 52.6 46.692C49.784 54.052 48.12 57.732 47.608 57.732C47.096 57.732 46.536 57.428 45.928 56.82C45.352 56.18 45.064 55.508 45.064 54.804C45.064 54.484 45.976 52.212 47.8 47.988H47.464C46.824 47.988 46.248 47.78 45.736 47.364C45.256 46.948 45.016 46.436 45.016 45.828C45.016 45.188 46.6 44.356 49.768 43.332C50.28 42.18 50.696 41.14 51.016 40.212C51.752 38.388 52.776 35.892 54.088 32.724C55.4 29.556 56.232 27.54 56.584 26.676C56.936 25.78 57.544 25.028 58.408 24.42C59.304 23.78 60.168 23.46 61 23.46C61.992 23.46 62.872 25.044 63.64 28.212C64.44 31.38 65.08 35.3 65.56 39.972C66.456 39.876 67.24 39.828 67.912 39.828C69.352 39.828 70.072 40.244 70.072 41.076ZM54.376 42.084C56.648 41.476 59.048 40.964 61.576 40.548C61 35.076 60.44 30.964 59.896 28.212C58.456 31.508 56.616 36.132 54.376 42.084Z" fill="white"/>
</svg>
